<?xml version="1.0" encoding="UTF-8" standalone="no"?>
<svg
   version="1.1"
   width="50.8000mm"
   height="83.2612mm"
   viewBox="0.0000 0.0000 50.8000 83.2612"
   id="svg30"
   sodipodi:docname="outline.svg"
   inkscape:version="1.3.2 (091e20ef0f, 2023-11-25, custom)"
   xmlns:inkscape="http://www.inkscape.org/namespaces/inkscape"
   xmlns:sodipodi="http://sodipodi.sourceforge.net/DTD/sodipodi-0.dtd"
   xmlns="http://www.w3.org/2000/svg"
   xmlns:svg="http://www.w3.org/2000/svg"
   xmlns:rdf="http://www.w3.org/1999/02/22-rdf-syntax-ns#"
   xmlns:cc="http://creativecommons.org/ns#"
   xmlns:dc="http://purl.org/dc/elements/1.1/">
  <defs
     id="defs30" />
  <sodipodi:namedview
     id="namedview30"
     pagecolor="#ffffff"
     bordercolor="#666666"
     borderopacity="1.0"
     inkscape:showpageshadow="2"
     inkscape:pageopacity="0.0"
     inkscape:pagecheckerboard="0"
     inkscape:deskcolor="#d1d1d1"
     inkscape:document-units="mm"
     inkscape:zoom="5.374745"
     inkscape:cx="169.31036"
     inkscape:cy="252.01195"
     inkscape:window-width="944"
     inkscape:window-height="1053"
     inkscape:window-x="911"
     inkscape:window-y="27"
     inkscape:window-maximized="0"
     inkscape:current-layer="layer1"
     showgrid="false" />
  <title
     id="title1">SVG Image created as mainboard-Edge_Cuts.svg date 2024/06/03 21:30:02 </title>
  <desc
     id="desc1">Image generated by PCBNEW </desc>
  <metadata
     id="metadata30">
    <rdf:RDF>
      <cc:Work
         rdf:about="">
        <dc:title>SVG Image created as mainboard-Edge_Cuts.svg date 2024/06/03 21:30:02 </dc:title>
      </cc:Work>
    </rdf:RDF>
  </metadata>
  <g
     inkscape:groupmode="layer"
     id="layer1"
     inkscape:label="Final">
    <path
       style="fill:none;stroke:#000000;stroke-width:0.264583px;stroke-linecap:butt;stroke-linejoin:miter;stroke-opacity:1"
       d="m 17.530838,3.7650735 c -0.325617,6.7355045 -0.894859,21.3269375 -0.894859,21.3269375 0,0 -0.08137,2.137504 -0.785747,2.715746 -2.993481,2.457418 -3.606208,4.069437 -3.745758,5.981764 -0.300765,4.12155 -0.20051,7.37379 -0.873689,11.800552 -0.113995,0.749624 -0.589403,1.442248 -1.129386,1.974554 C 9.3932994,48.26266 8.4272009,49.128104 7.6665841,49.768508 7.1503163,50.203181 5.7982626,53.91275 5.6105974,54.561021 3.7674409,60.92802 2.2498315,66.59573 1.0697288,76.042424 c -0.25061939,1.707959 0.026035,3.211245 0.9758552,4.6587 0.5343632,0.749138 1.5447767,1.844597 2.4425385,2.226154 0.5298909,0.225209 3.2878729,0.610505 5.1322258,0.338646 0.8576707,-0.126422 2.8413507,-0.917679 4.8072717,-3.61216 1.704044,-2.44259 1.418204,-9.11794 4.802349,-11.557663 7.798043,-5.621821 18.907738,-0.769705 27.555727,-2.082647 1.176392,-0.178601 3.611696,-1.772574 3.659127,-3.026167 C 51.039737,47.26381 50.380972,25.690577 50.156642,5.798087 50.14705,4.9473523 49.814044,2.7117707 49.249293,2.0754546 48.68708,1.4419974 47.244788,0.13369867 46.397845,0.12734553 36.897256,0.05607912 30.614646,0.19105759 20.557393,0.29550793 18.219782,0.31978536 17.606271,2.2047139 17.530838,3.7650735 Z"
       id="path31"
       sodipodi:nodetypes="scsssssssssssssssssss" />
  </g>
</svg>
