<?xml version="1.0" encoding="UTF-8" standalone="no"?>
<svg
   version="1.1"
   width="50.8000mm"
   height="83.2612mm"
   viewBox="0.0000 0.0000 50.8000 83.2612"
   id="svg30"
   sodipodi:docname="outline.svg"
   inkscape:version="1.3.2 (091e20ef0f, 2023-11-25, custom)"
   xmlns:inkscape="http://www.inkscape.org/namespaces/inkscape"
   xmlns:sodipodi="http://sodipodi.sourceforge.net/DTD/sodipodi-0.dtd"
   xmlns="http://www.w3.org/2000/svg"
   xmlns:svg="http://www.w3.org/2000/svg"
   xmlns:rdf="http://www.w3.org/1999/02/22-rdf-syntax-ns#"
   xmlns:cc="http://creativecommons.org/ns#"
   xmlns:dc="http://purl.org/dc/elements/1.1/">
  <defs
     id="defs30" />
  <sodipodi:namedview
     id="namedview30"
     pagecolor="#ffffff"
     bordercolor="#666666"
     borderopacity="1.0"
     inkscape:showpageshadow="2"
     inkscape:pageopacity="0.0"
     inkscape:pagecheckerboard="0"
     inkscape:deskcolor="#d1d1d1"
     inkscape:document-units="mm"
     inkscape:zoom="18.635585"
     inkscape:cx="168.33387"
     inkscape:cy="22.296054"
     inkscape:window-width="1444"
     inkscape:window-height="1243"
     inkscape:window-x="1200"
     inkscape:window-y="103"
     inkscape:window-maximized="0"
     inkscape:current-layer="layer1" />
  <title
     id="title1">SVG Image created as mainboard-Edge_Cuts.svg date 2024/06/03 21:30:02 </title>
  <desc
     id="desc1">Image generated by PCBNEW </desc>
  <metadata
     id="metadata30">
    <rdf:RDF>
      <cc:Work
         rdf:about="">
        <dc:title>SVG Image created as mainboard-Edge_Cuts.svg date 2024/06/03 21:30:02 </dc:title>
      </cc:Work>
    </rdf:RDF>
  </metadata>
  <g
     inkscape:groupmode="layer"
     id="layer1"
     inkscape:label="Final">
    <path
       style="fill:none;stroke:#000000;stroke-width:0.264583px;stroke-linecap:butt;stroke-linejoin:miter;stroke-opacity:1"
       d="m 17.530838,3.7650735 c -0.325617,6.7355045 -0.894859,21.3269375 -0.894859,21.3269375 0,0 -0.08137,2.137504 -0.785747,2.715746 -2.993481,2.457418 -3.540528,2.404417 -3.680078,4.316744 -0.300765,4.12155 -0.26619,9.03881 -0.939369,13.465572 -0.113995,0.749624 -0.589403,1.442248 -1.129386,1.974554 -0.7080996,0.698033 -1.8496299,0.803377 -2.6102467,1.443781 -0.5162678,0.434673 -1.0797919,0.930593 -1.2674571,1.578864 -1.8431565,6.366999 -4.7393902,17.653595 -5.91949292,27.100289 -0.0774287,0.619815 0.14472778,1.249418 0.33963842,1.842862 0.19054992,0.580167 0.4462297,1.150515 0.8008441,1.647658 0.3329609,0.466787 0.7679032,0.859394 1.2179715,1.214628 0.409521,0.323231 0.8522656,0.617118 1.3324136,0.821185 0.5298909,0.225209 3.7809255,0.323889 5.6252784,0.05203 0.8576707,-0.126422 2.8413507,-0.917679 4.8072717,-3.61216 1.704044,-2.44259 1.418204,-9.11794 4.802349,-11.557663 C 27.028012,62.47428 39.346398,67.326396 47.994387,66.013454 49.170779,65.834853 51.070245,64.17961 51.07182,62.59469 51.08745,46.85997 51.007969,25.29798 50.783639,5.4054897 50.774047,4.554755 49.814044,2.7117707 49.249293,2.0754546 48.68708,1.4419974 47.244788,0.13369867 46.397845,0.12734553 36.897256,0.05607912 30.614646,0.19105759 20.557393,0.29550793 18.219782,0.31978536 17.606271,2.2047139 17.530838,3.7650735 Z"
       id="path31"
       sodipodi:nodetypes="scsssssssssssssssssssss" />
  </g>
</svg>
